# xmcd
# 
# Track frame offsets:
#     150
#     24391
#     40480
#     54008
#     87191
#     115619
#     134311
#     164374
#     182994
#     202486
#     218701
#     241645
# 
# Disc length: 3562
# 
# Revision: 0
# Processed by: cddbd v1.5.2PL0 Copyright (c) Steve Scherf et al.
# Submitted via: fre:ac v1.0.27
# 
DISCID=9f0de80c
DTITLE=Blue Shoe Sole Revue - I want A German Woman
DYEAR=1999
DGENRE=Blues
TTITLE0=I Want A German Woman
TTITLE1=I Need A Gun And A Drink
TTITLE2=Black Diamond
TTITLE3=Cold Cold Feeling
TTITLE4=Blues'd Up
TTITLE5=Have Your Fun
TTITLE6=Fool No More
TTITLE7=Too Tired
TTITLE8=Set Me Off
TTITLE9=Home Of The Blues
TTITLE10=She Walks Right In
TTITLE11=Too Late
EXTD=Local Kansas City Mo. Blues Band
EXTT0=
EXTT1=
EXTT2=
EXTT3=
EXTT4=
EXTT5=
EXTT6=
EXTT7=
EXTT8=
EXTT9=
EXTT10=
EXTT11=
PLAYORDER=
